

<!--svg width='26px' height='26px' xmlns='http://www.w3.org/2000/svg'>
    <g stroke="black" stroke-width="3" stroke-linecap="round">
        <line x1="2" y1="6" x2="6" y2="6"/>
        <line x1="2" y1="13" x2="6" y2="13"/>
        <line x1="2" y1="20" x2="6" y2="20"/>
        <line x1="11" y1="6" x2="15" y2="6"/>
        <line x1="11" y1="13" x2="15" y2="13"/>
        <line x1="11" y1="20" x2="15" y2="20"/>
        <line x1="20" y1="6" x2="24" y2="6"/>
        <line x1="20" y1="13" x2="24" y2="13"/>
        <line x1="20" y1="20" x2="24" y2="20"/>
    </g>
    <g stroke="#0e7667" stroke-width="4" stroke-linecap="round">
        <line x1="2" y1="6" x2="6" y2="6"/>
        <line x1="11" y1="13" x2="6" y2="6"/>
        <line x1="11" y1="13" x2="24" y2="13"/>
    </g>
</svg-->



<svg width='26px' height='26px' xmlns='http://www.w3.org/2000/svg'>
    <style>
        .regular-lines {
            stroke: #000000;
        }
        .accent-lines {
            stroke: #0e7667
        }
        @media (prefers-color-scheme: dark) {
            .regular-lines {
                stroke: #ffffff;
            }
            .accent-lines {
                stroke: #27f4e2
            }
        }
    </style>
    <mask id="line-mask">
        <g stroke="white" stroke-width="4" stroke-linecap="round">
            <line x1="2" y1="6" x2="24" y2="6"/>
            <line x1="2" y1="13" x2="24" y2="13"/>
            <line x1="2" y1="20" x2="24" y2="20"/>
        </g>
        <line stroke="black" stroke-width="8" stroke-linecap="round" x1="11" y1="13" x2="6" y2="6"/>
    </mask>
    <g class="regular-lines" stroke-width="3" stroke-linecap="round" mask="url(#line-mask)">
        <line x1="2" y1="6" x2="24" y2="6"/>
        <line x1="2" y1="13" x2="24" y2="13"/>
        <line x1="2" y1="20" x2="24" y2="20"/>
    </g>
    <g class="accent-lines" stroke-width="4" stroke-linecap="round">
        <line x1="2" y1="6" x2="6" y2="6"/>
        <line x1="11" y1="13" x2="6" y2="6"/>
        <line x1="11" y1="13" x2="24" y2="13"/>
    </g>
</svg>